<?xml version="1.0" encoding="UTF-8"?>
<svg version="1.1" xmlns="http://www.w3.org/2000/svg" width="2048" height="1152">
<path d="M0 0 C675.84 0 1351.68 0 2048 0 C2048 380.16 2048 760.32 2048 1152 C1372.16 1152 696.32 1152 0 1152 C0 771.84 0 391.68 0 0 Z " fill="#C1D5E6" transform="translate(0,0)"/>
<path d="M0 0 C1.58786223 3.17572446 0.19198596 6.19093769 -0.6171875 9.5 C-0.79379913 10.25031494 -0.97041077 11.00062988 -1.15237427 11.77368164 C-1.72002131 14.18406558 -2.29649345 16.59220091 -2.875 19 C-6.11540445 31.89695572 -6.11540445 31.89695572 -7.82861328 45.0546875 C-8 47 -8 47 -8.59985352 49.14648438 C-8.79792603 50.06397461 -8.79792603 50.06397461 -9 51 C-7.72828349 52.87978426 -7.72828349 52.87978426 -5.8125 54.5 C-5.16796875 55.10199219 -4.5234375 55.70398437 -3.859375 56.32421875 C-3.24578125 56.87722656 -2.6321875 57.43023438 -2 58 C-0.63205253 59.29779632 0.71889593 60.6164076 2 62 C2 62.66 2 63.32 2 64 C6.95 64.66 11.9 65.32 17 66 C14.29427432 68.70572568 12.50186815 68.97615828 8.7109375 69.15625 C5.106081 69.00446657 2.10563612 68.41019056 -1.375 67.5 C-12.4323077 65.01534406 -23.75637934 65.00741921 -34.80078125 67.66015625 C-37.18565396 68.02868898 -38.72476177 67.74452876 -41 67 C-39.10614563 66.49255577 -37.20981334 65.99435426 -35.3125 65.5 C-34.25675781 65.2215625 -33.20101563 64.943125 -32.11328125 64.65625 C-29.28857328 64.0608285 -26.87163292 63.87213508 -24 64 C-24.3609375 63.37351562 -24.721875 62.74703125 -25.09375 62.1015625 C-25.5578125 61.28429688 -26.021875 60.46703125 -26.5 59.625 C-26.9640625 58.81289062 -27.428125 58.00078125 -27.90625 57.1640625 C-29 55 -29 55 -29 53 C-28.25234375 53.20496094 -27.5046875 53.40992188 -26.734375 53.62109375 C-25.74953125 53.89050781 -24.7646875 54.15992188 -23.75 54.4375 C-22.77546875 54.70433594 -21.8009375 54.97117187 -20.796875 55.24609375 C-18.53627347 55.85544584 -16.27377991 56.44238255 -14 57 C-14.97850195 55.97895449 -15.97980427 54.9793879 -17 54 C-17.33 54 -17.66 54 -18 54 C-20.00899487 53.72604615 -22.00889599 53.38290462 -24 53 C-24.9075 52.855625 -25.815 52.71125 -26.75 52.5625 C-29.66051669 50.54130785 -29.62468687 49.28520638 -30.3125 45.875 C-30.539375 44.26625 -30.76625 42.6575 -31 41 C-28.03 42.65 -25.06 44.3 -22 46 C-23.155 45.195625 -24.31 44.39125 -25.5 43.5625 C-27.84229517 41.59723423 -28.87776764 40.63170505 -29.46484375 37.59765625 C-29.44011598 35.36155909 -29.30992125 33.21372319 -29 31 C-27 31 -27 31 -24.375 33.5 C-23.59125 34.325 -22.8075 35.15 -22 36 C-22.845625 35.05125 -23.69125 34.1025 -24.5625 33.125 C-27.00543805 29.78311565 -27.25487798 27.65449627 -26.8125 23.5625 C-26.56924058 22.03701333 -26.30763701 20.51381775 -26 19 C-25.34 19 -24.68 19 -24 19 C-22.99088542 20.79036458 -21.98177083 22.58072917 -20.97265625 24.37109375 C-20.1027487 25.97878146 -20.1027487 25.97878146 -19 27 C-19.31195312 26.48050781 -19.62390625 25.96101563 -19.9453125 25.42578125 C-23.15655577 19.67318982 -23.15655577 19.67318982 -22.375 16.3125 C-21.92125 15.549375 -21.4675 14.78625 -21 14 C-20.62875 13.071875 -20.2575 12.14375 -19.875 11.1875 C-19.58625 10.465625 -19.2975 9.74375 -19 9 C-18.01 10.485 -18.01 10.485 -17 12 C-16.4225 11.071875 -15.845 10.14375 -15.25 9.1875 C-13.24893865 6.35266309 -11.7709627 4.93850962 -9 3 C-9.00523682 3.81267334 -9.01047363 4.62534668 -9.01586914 5.46264648 C-9.03656994 9.12092322 -9.04963803 12.77918767 -9.0625 16.4375 C-9.07087891 17.71689453 -9.07925781 18.99628906 -9.08789062 20.31445312 C-9.09111328 21.52939453 -9.09433594 22.74433594 -9.09765625 23.99609375 C-9.10289307 25.12200928 -9.10812988 26.2479248 -9.11352539 27.40795898 C-9.29545448 29.92970871 -9.29545448 29.92970871 -8 31 C-8.04189453 30.27409668 -8.08378906 29.54819336 -8.12695312 28.80029297 C-8.29385143 25.49243193 -8.39746377 22.18545547 -8.5 18.875 C-8.60054687 17.16183594 -8.60054687 17.16183594 -8.703125 15.4140625 C-8.89742737 7.05906079 -8.89742737 7.05906079 -6.18359375 3.85644531 C-4.18214489 2.35535867 -2.23843446 1.11101552 0 0 Z " fill="#8FBCDB" transform="translate(1863,1058)"/>
<path d="M0 0 C0.66 0.66 1.32 1.32 2 2 C2.495 1.484375 2.99 0.96875 3.5 0.4375 C6.69443755 -1.39930159 8.59951024 -1.19679856 12.15625 -0.56640625 C14 0 14 0 16.0625 1.625 C17.44114178 5.11755918 16.97696252 7.4178041 16 11 C13.7240917 13.6130799 12.4472164 13.95341496 9 14.3125 C6 14 6 14 3.875 12.875 C3.25625 12.58625 2.6375 12.2975 2 12 C0.64914193 12.63040043 -0.68252676 13.30251417 -2 14 C-5.74712451 14.47835632 -7.53525081 14.25258108 -10.875 12.4375 C-13 10 -13 10 -13.625 6.5 C-13 3 -13 3 -11 0.5 C-6.76573694 -1.61713153 -4.58627155 -1.05258691 0 0 Z " fill="#C1D6E4" transform="translate(1881,1098)"/>
<path d="M0 0 C19.01015228 5.01015228 19.01015228 5.01015228 22 8 C23.99483012 8.60696398 23.99483012 8.60696398 26.25 9 C28.95706734 9.54744833 31.38707986 10.13709078 34 11.0625 C37.95874081 12.2996065 41.8800712 12.6520949 46 13 C43.29427432 15.70572568 41.50186815 15.97615828 37.7109375 16.15625 C34.106081 16.00446657 31.10563612 15.41019056 27.625 14.5 C16.5676923 12.01534406 5.24362066 12.00741921 -5.80078125 14.66015625 C-8.18565396 15.02868898 -9.72476177 14.74452876 -12 14 C-10.10614563 13.49255577 -8.20981334 12.99435426 -6.3125 12.5 C-5.25675781 12.2215625 -4.20101563 11.943125 -3.11328125 11.65625 C-0.28857328 11.0608285 2.12836708 10.87213508 5 11 C4.6390625 10.37351562 4.278125 9.74703125 3.90625 9.1015625 C3.4421875 8.28429688 2.978125 7.46703125 2.5 6.625 C2.0359375 5.81289062 1.571875 5.00078125 1.09375 4.1640625 C0 2 0 2 0 0 Z " fill="#1E82C0" transform="translate(1834,1111)"/>
<path d="M0 0 C0.66 0 1.32 0 2 0 C6 6.75 6 6.75 6 9 C6.99 9.33 7.98 9.66 9 10 C10.6875 13.0625 10.6875 13.0625 12 16 C14.12364481 16.22609337 14.12364481 16.22609337 15.625 14.5 C16.305625 13.7575 16.305625 13.7575 17 13 C17 13.99 17 14.98 17 16 C17.66 16 18.32 16 19 16 C18.88658363 18.31309705 18.75896193 20.62550185 18.625 22.9375 C18.55539062 24.22527344 18.48578125 25.51304688 18.4140625 26.83984375 C18.27742188 27.88269531 18.14078125 28.92554688 18 30 C17.34 30.33 16.68 30.66 16 31 C12.32370502 27.20116185 11.48943678 24.16520574 10.5703125 19.16015625 C9.77174234 16.13543502 8.14838086 14.21999356 6 12 C5.66551741 14.832168 5.66551741 14.832168 6 18 C7.87501931 20.37719693 7.87501931 20.37719693 10 22 C9.67 22.66 9.34 23.32 9 24 C8.01 23.01 7.02 22.02 6 21 C6 22.98 6 24.96 6 27 C-0.75 23.25 -0.75 23.25 -3 21 C-3.1953125 18.8359375 -3.1953125 18.8359375 -3.125 16.375 C-3.10695313 15.55773438 -3.08890625 14.74046875 -3.0703125 13.8984375 C-3.04710937 13.27195312 -3.02390625 12.64546875 -3 12 C-1 12 -1 12 1.625 14.5 C2.40875 15.325 3.1925 16.15 4 17 C3.154375 16.05125 2.30875 15.1025 1.4375 14.125 C-1.00543805 10.78311565 -1.25487798 8.65449627 -0.8125 4.5625 C-0.56924058 3.03701333 -0.30763701 1.51381775 0 0 Z " fill="#85B7D9" transform="translate(1837,1077)"/>
<path d="M0 0 C7.25 0 7.25 0 11 1 C10.01 1.33 9.02 1.66 8 2 C9.39332574 5.36720387 10.9789286 6.9859524 14 9 C13.125 13.875 13.125 13.875 12 15 C9.66055264 14.71269945 7.3260857 14.38063221 5 14 C4.67 13.01 4.34 12.02 4 11 C3.01 12.485 3.01 12.485 2 14 C0.16015625 14.6171875 0.16015625 14.6171875 -1.9375 14.875 C-2.62714844 14.97554687 -3.31679687 15.07609375 -4.02734375 15.1796875 C-6 15 -6 15 -7.7109375 13.86328125 C-9.4577211 11.33838496 -9.50837353 9.35764995 -9.6875 6.3125 C-9.75324219 5.31863281 -9.81898437 4.32476563 -9.88671875 3.30078125 C-9.92410156 2.54152344 -9.96148438 1.78226563 -10 1 C-9.01 1.33 -8.02 1.66 -7 2 C-7.03255208 4.01822917 -7.06510417 6.03645833 -7.09765625 8.0546875 C-7.12649242 10.08185404 -7.12649242 10.08185404 -6 12 C-3.69 12 -1.38 12 1 12 C1.02698189 10.37509046 1.04638757 8.75005367 1.0625 7.125 C1.07410156 6.22007813 1.08570313 5.31515625 1.09765625 4.3828125 C1.16249257 1.9831415 1.16249257 1.9831415 0 0 Z " fill="#7AB8B4" transform="translate(1933,1097)"/>
<path d="M0 0 C2.6875 -0.3125 2.6875 -0.3125 6 0 C8.875 2.5 8.875 2.5 11 5 C11 3.35 11 1.7 11 0 C14.96 0 18.92 0 23 0 C23 1.98 23 3.96 23 6 C23.66 6 24.32 6 25 6 C25 4.02 25 2.04 25 0 C28.63 0 32.26 0 36 0 C35.67 0.66 35.34 1.32 35 2 C34.01 1.67 33.02 1.34 32 1 C32 1.99 32 2.98 32 4 C32.99 4 33.98 4 35 4 C34.67 4.66 34.34 5.32 34 6 C33.34 5.67 32.68 5.34 32 5 C32 6.32 32 7.64 32 9 C33.32 8.67 34.64 8.34 36 8 C36 8.66 36 9.32 36 10 C33.69 10 31.38 10 29 10 C29.33 7.03 29.66 4.06 30 1 C27.07175348 3.92824652 25.72760033 6.2979993 24 10 C21.3144406 7.3144406 20.93950026 4.62378672 20 1 C19.01 1 18.02 1 17 1 C17 3.64 17 6.28 17 9 C16.67 9 16.34 9 16 9 C16 6.36 16 3.72 16 1 C15.01 1 14.02 1 13 1 C13 3.64 13 6.28 13 9 C11.02 7.35 9.04 5.7 7 4 C7 5.98 7 7.96 7 10 C6.01 10 5.02 10 4 10 C3.67 9.01 3.34 8.02 3 7 C2.01 7.495 2.01 7.495 1 8 C0.67 5.36 0.34 2.72 0 0 Z " fill="#55AA9B" transform="translate(1956,1084)"/>
<path d="M0 0 C1.58181363 3.16362726 0.17962287 6.12819317 -0.65234375 9.4140625 C-0.83132706 10.14370209 -1.01031036 10.87334167 -1.19471741 11.62509155 C-1.76909795 13.96006754 -2.35317487 16.29249492 -2.9375 18.625 C-3.32811393 20.20557115 -3.71809604 21.78629858 -4.10742188 23.3671875 C-5.06428676 27.24664464 -6.02985587 31.12384328 -7 35 C-7.33 35 -7.66 35 -8 35 C-8.19879872 30.98044282 -8.34338441 26.9628108 -8.43945312 22.93945312 C-8.47951753 21.573386 -8.53399241 20.20765844 -8.60351562 18.84277344 C-9.16852951 7.45940541 -9.16852951 7.45940541 -6.18359375 3.73144531 C-4.17847901 2.22760926 -2.27715665 1.0378135 0 0 Z " fill="#2586C2" transform="translate(1863,1058)"/>
<path d="M0 0 C0.66 0 1.32 0 2 0 C2 2.31 2 4.62 2 7 C3.32 6.67 4.64 6.34 6 6 C6 4.02 6 2.04 6 0 C6.99 0.33 7.98 0.66 9 1 C9.125 5.75 9.125 5.75 8 8 C8.39938767 10.09821215 8.39938767 10.09821215 9 12 C9.99 12 10.98 12 12 12 C12.33 8.04 12.66 4.08 13 0 C13.99 0.33 14.98 0.66 16 1 C15.67 4.63 15.34 8.26 15 12 C15.66 12 16.32 12 17 12 C17 11.34 17 10.68 17 10 C17.66 10 18.32 10 19 10 C19.33 10.66 19.66 11.32 20 12 C20.99 12 21.98 12 23 12 C22.79623822 10.09415804 22.79623822 10.09415804 22 8 C20.9790625 7.2884375 20.9790625 7.2884375 19.9375 6.5625 C19.298125 6.046875 18.65875 5.53125 18 5 C17.75 2.3125 17.75 2.3125 18 0 C18.66 0 19.32 0 20 0 C20.061875 0.5775 20.12375 1.155 20.1875 1.75 C21.32027301 4.88690987 23.34197595 6.09167504 26 8 C25.125 12.875 25.125 12.875 24 14 C11.96972527 15.1022503 11.96972527 15.1022503 8.06640625 12.91796875 C6.8125 11.5625 6.8125 11.5625 5 9 C4.01 8.67 3.02 8.34 2 8 C2 9.65 2 11.3 2 13 C1.34 13 0.68 13 0 13 C0 8.71 0 4.42 0 0 Z " fill="#49A493" transform="translate(1984,1098)"/>
<path d="M0 0 C8.58 0 17.16 0 26 0 C25.67 0.66 25.34 1.32 25 2 C24.90391392 3.83128771 24.87017421 5.66619959 24.875 7.5 C24.87242188 8.4796875 24.86984375 9.459375 24.8671875 10.46875 C24.83059947 12.99431054 24.83059947 12.99431054 26 15 C24.02 15 22.04 15 20 15 C20.01160156 14.22914062 20.02320313 13.45828125 20.03515625 12.6640625 C20.04417969 11.66117188 20.05320312 10.65828125 20.0625 9.625 C20.07410156 8.62726563 20.08570313 7.62953125 20.09765625 6.6015625 C20.18006602 4.01567547 20.18006602 4.01567547 19 2 C17.35 2 15.7 2 14 2 C14 5.96 14 9.92 14 14 C13.34 14 12.68 14 12 14 C12 10.04 12 6.08 12 2 C10.35 2 8.7 2 7 2 C7 2.66 7 3.32 7 4 C6.34 4 5.68 4 5 4 C5 3.34 5 2.68 5 2 C3.35 1.67 1.7 1.34 0 1 C0 0.67 0 0.34 0 0 Z " fill="#51A898" transform="translate(2004,1097)"/>
<path d="M0 0 C2.4375 0.75 2.4375 0.75 4.4375 2.75 C4.73828125 4.625 4.73828125 4.625 4.75 6.75 C4.76675781 7.45125 4.78351563 8.1525 4.80078125 8.875 C4.62095703 9.803125 4.62095703 9.803125 4.4375 10.75 C1.4375 12.75 1.4375 12.75 -1.625 12.625 C-4.5625 11.75 -4.5625 11.75 -6 10.0625 C-6.75474007 6.9596797 -6.42727202 4.80996253 -5.5625 1.75 C-2.5625 -0.25 -2.5625 -0.25 0 0 Z " fill="#C2D7E4" transform="translate(1890.5625,1098.25)"/>
<path d="M0 0 C0.66 0 1.32 0 2 0 C2 2.31 2 4.62 2 7 C3.32 6.67 4.64 6.34 6 6 C6 4.02 6 2.04 6 0 C6.99 0.33 7.98 0.66 9 1 C9.125 5.75 9.125 5.75 8 8 C9.65 9.65 11.3 11.3 13 13 C13 8.71 13 4.42 13 0 C13.66 0 14.32 0 15 0 C15 2.31 15 4.62 15 7 C16.32 6.34 17.64 5.68 19 5 C19 3.35 19 1.7 19 0 C19.99 0.33 20.98 0.66 22 1 C22.1875 3.375 22.1875 3.375 22 6 C19 8 19 8 15 8 C15.66 9.98 16.32 11.96 17 14 C13.8125 14.3125 13.8125 14.3125 10 14 C7.25 11.5625 7.25 11.5625 5 9 C4.01 8.67 3.02 8.34 2 8 C2 9.65 2 11.3 2 13 C1.34 13 0.68 13 0 13 C0 8.71 0 4.42 0 0 Z " fill="#319A83" transform="translate(1899,1098)"/>
<path d="M0 0 C1.41875765 0.76697796 2.83491452 1.53876778 4.25 2.3125 C5.03890625 2.74175781 5.8278125 3.17101563 6.640625 3.61328125 C8.90064966 4.941607 10.91919563 6.41055601 13 8 C14.051875 8.639375 15.10375 9.27875 16.1875 9.9375 C19 12 19 12 19.875 14.25 C19.91625 14.8275 19.9575 15.405 20 16 C17.625 15.6875 17.625 15.6875 15 15 C14.34 14.01 13.68 13.02 13 12 C12.01 12.33 11.02 12.66 10 13 C6.91622395 12.67635618 4.48136954 11.87576531 2 10 C0.69599065 6.71621937 0.26343631 3.51028882 0 0 Z " fill="#1E82C0" transform="translate(1832,1099)"/>
<path d="M0 0 C2.31 0.33 4.62 0.66 7 1 C7.33 1.99 7.66 2.98 8 4 C8.66 2.68 9.32 1.36 10 0 C11.32 0.33 12.64 0.66 14 1 C13.01 1 12.02 1 11 1 C11.66 1.763125 12.32 2.52625 13 3.3125 C15 6 15 6 15 9 C9.58461538 10.23076923 9.58461538 10.23076923 6.625 9.0625 C6.08875 8.711875 5.5525 8.36125 5 8 C5 7.34 5 6.68 5 6 C4.34 6 3.68 6 3 6 C3.33 7.32 3.66 8.64 4 10 C2.68 9.67 1.36 9.34 0 9 C0 6.03 0 3.06 0 0 Z " fill="#ABCDD5" transform="translate(1993,1084)"/>
<path d="M0 0 C1.84375 0.56640625 1.84375 0.56640625 3.90625 2.19140625 C5.28489178 5.68396543 4.82071252 7.98421035 3.84375 11.56640625 C1.62209456 14.11719583 0.23545557 14.49973296 -3.09375 15.06640625 C-7.24145276 14.38923029 -8.65214333 12.88066508 -11.15625 9.56640625 C-11.46875 6.75390625 -11.46875 6.75390625 -11.15625 4.56640625 C-11.81625 4.56640625 -12.47625 4.56640625 -13.15625 4.56640625 C-13.15625 3.57640625 -13.15625 2.58640625 -13.15625 1.56640625 C-13.81625 1.23640625 -14.47625 0.90640625 -15.15625 0.56640625 C-14.16625 0.56640625 -13.17625 0.56640625 -12.15625 0.56640625 C-11.49625 1.22640625 -10.83625 1.88640625 -10.15625 2.56640625 C-9.66125 2.05078125 -9.16625 1.53515625 -8.65625 1.00390625 C-5.46181245 -0.83289534 -3.55673976 -0.63039231 0 0 Z M-7.46875 2.12890625 C-9.50871661 4.56918873 -9.50871661 4.56918873 -9.09375 8.19140625 C-8.4811655 11.82157549 -8.4811655 11.82157549 -5.15625 13.56640625 C-1.32876095 13.38408033 -1.32876095 13.38408033 1.84375 11.56640625 C2.36178544 6.30048916 2.36178544 6.30048916 0.59375 1.56640625 C-2.50636433 -0.20508765 -4.61792683 0.20267438 -7.46875 2.12890625 Z " fill="#42A18E" transform="translate(1893.15625,1097.43359375)"/>
<path d="M0 0 C5.28 0 10.56 0 16 0 C15.67 0.99 15.34 1.98 15 3 C15 2.34 15 1.68 15 1 C14.01 1 13.02 1 12 1 C12 1.99 12 2.98 12 4 C12.99 4 13.98 4 15 4 C14.67 4.66 14.34 5.32 14 6 C13.34 5.67 12.68 5.34 12 5 C12 6.32 12 7.64 12 9 C12.763125 8.67 13.52625 8.34 14.3125 8 C17 7 17 7 20 7 C20 7.99 20 8.98 20 10 C16.04 10 12.08 10 8 10 C8.66 9.67 9.32 9.34 10 9 C9.81584568 6.05908413 9.81584568 6.05908413 9 3 C7.68 2.34 6.36 1.68 5 1 C5.33 3.97 5.66 6.94 6 10 C4.68 9.67 3.36 9.34 2 9 C2.33 6.36 2.66 3.72 3 1 C2.01 1.33 1.02 1.66 0 2 C0 1.34 0 0.68 0 0 Z " fill="#62AFA4" transform="translate(1868,1084)"/>
<path d="M0 0 C0 4.95 0 9.9 0 15 C-1.65 15.33 -3.3 15.66 -5 16 C-6.13304921 12.98991143 -6.93358247 10.22891367 -7 7 C-5.73198625 4.65905154 -3.01708643 0 0 0 Z " fill="#1A80BF" transform="translate(1854,1061)"/>
<path d="M0 0 C0.66 0 1.32 0 2 0 C2.66 2.31 3.32 4.62 4 7 C6.51083114 5.74458443 6.87125446 4.49936512 8 2 C8.99 2 9.98 2 11 2 C11 2.66 11 3.32 11 4 C11.99 4.33 12.98 4.66 14 5 C13.67 6.65 13.34 8.3 13 10 C9.37 10 5.74 10 2 10 C2 9.01 2 8.02 2 7 C1.01 6.67 0.02 6.34 -1 6 C-0.67 4.02 -0.34 2.04 0 0 Z " fill="#62AFA4" transform="translate(1917,1084)"/>
<path d="M0 0 C2.38564077 0.57584432 4.66682784 1.22227595 7 2 C7.12375 2.804375 7.2475 3.60875 7.375 4.4375 C7.684375 5.7059375 7.684375 5.7059375 8 7 C8.66 7.33 9.32 7.66 10 8 C10.33 6.35 10.66 4.7 11 3 C11.33 3.66 11.66 4.32 12 5 C12 4.01 12 3.02 12 2 C12 1.34 12 0.68 12 0 C12.66 0 13.32 0 14 0 C14.268125 0.969375 14.53625 1.93875 14.8125 2.9375 C15.204375 3.948125 15.59625 4.95875 16 6 C16.99 6.33 17.98 6.66 19 7 C19 7.66 19 8.32 19 9 C19.99 9.33 20.98 9.66 22 10 C19.36 10 16.72 10 14 10 C14 9.01 14 8.02 14 7 C13.01 6.67 12.02 6.34 11 6 C11.33 7.32 11.66 8.64 12 10 C10.02 10 8.04 10 6 10 C5.67 9.01 5.34 8.02 5 7 C4.34 7 3.68 7 3 7 C2.690625 6.21625 2.38125 5.4325 2.0625 4.625 C1.07124962 2.07669872 1.07124962 2.07669872 0 0 Z " fill="#54A99B" transform="translate(1885,1084)"/>
<path d="M0 0 C0.99 0 1.98 0 3 0 C3 1.98 3 3.96 3 6 C5.64 6 8.28 6 11 6 C11 4.02 11 2.04 11 0 C11.66 0 12.32 0 13 0 C13 4.29 13 8.58 13 13 C12.34 13 11.68 13 11 13 C11 11.02 11 9.04 11 7 C8.36 7 5.72 7 3 7 C3 8.98 3 10.96 3 13 C2.34 13 1.68 13 1 13 C0.67 8.71 0.34 4.42 0 0 Z " fill="#26957B" transform="translate(1966,1098)"/>
<path d="M0 0 C2.64 0 5.28 0 8 0 C8.33 2.31 8.66 4.62 9 7 C7.35 7.33 5.7 7.66 4 8 C4 5.69 4 3.38 4 1 C3.34 1 2.68 1 2 1 C2 5.29 2 9.58 2 14 C2.99 13.67 3.98 13.34 5 13 C5.33 13.66 5.66 14.32 6 15 C4.02 15 2.04 15 0 15 C0 10.05 0 5.1 0 0 Z " fill="#A5CBD1" transform="translate(1982,1097)"/>
<path d="M0 0 C2.02466144 3.03699216 2.44458353 4.47268455 2.875 8 C2.99617188 8.86625 3.11734375 9.7325 3.2421875 10.625 C3 13 3 13 1.0078125 14.8125 C0.34523438 15.204375 -0.31734375 15.59625 -1 16 C-2.625 13.3125 -2.625 13.3125 -4 10 C-3.3125 7.4375 -3.3125 7.4375 -2 5 C-1.62875 4.071875 -1.2575 3.14375 -0.875 2.1875 C-0.58625 1.465625 -0.2975 0.74375 0 0 Z " fill="#1F82C0" transform="translate(1844,1067)"/>
<path d="M0 0 C0.66 0 1.32 0 2 0 C5.41029848 5.32006564 5.09644404 9.05542387 4 15 C1.4375 13.125 1.4375 13.125 -1 10 C-1.1465164 6.57256278 -0.65867457 3.35858814 0 0 Z " fill="#2485C2" transform="translate(1837,1077)"/>
<path d="M0 0 C0.66 0 1.32 0 2 0 C2 2.31 2 4.62 2 7 C3.32 6.67 4.64 6.34 6 6 C6 4.02 6 2.04 6 0 C6.99 0.33 7.98 0.66 9 1 C9.125 5.75 9.125 5.75 8 8 C8.89363605 10.60931266 8.89363605 10.60931266 10 13 C6.125 11.25 6.125 11.25 5 9 C4.01 8.67 3.02 8.34 2 8 C2 9.65 2 11.3 2 13 C1.34 13 0.68 13 0 13 C0 8.71 0 4.42 0 0 Z " fill="#2A987F" transform="translate(1984,1098)"/>
<path d="M0 0 C2 0 2 0 4.0625 2 C6.54797492 5.8484773 6.69266748 8.46684529 7 13 C4.08482708 11.92598892 2.22189824 11.22189824 0 9 C-0.1953125 6.8359375 -0.1953125 6.8359375 -0.125 4.375 C-0.10695313 3.55773438 -0.08890625 2.74046875 -0.0703125 1.8984375 C-0.04710937 1.27195312 -0.02390625 0.64546875 0 0 Z " fill="#1C81BF" transform="translate(1834,1089)"/>
<path d="M0 0 C2.31 0.33 4.62 0.66 7 1 C7 3.64 7 6.28 7 9 C6.34 8.67 5.68 8.34 5 8 C5 7.34 5 6.68 5 6 C4.34 6 3.68 6 3 6 C3.33 7.32 3.66 8.64 4 10 C2.68 9.67 1.36 9.34 0 9 C0 6.03 0 3.06 0 0 Z " fill="#60AEA3" transform="translate(1993,1084)"/>
<path d="M0 0 C2.0625 0.4375 2.0625 0.4375 4 1 C3.01 1.33 2.02 1.66 1 2 C2.39332574 5.36720387 3.9789286 6.9859524 7 9 C6.125 13.875 6.125 13.875 5 15 C2.66055264 14.71269945 0.3260857 14.38063221 -2 14 C-1.67 13.01 -1.34 12.02 -1 11 C-1 11.66 -1 12.32 -1 13 C0.65 13 2.3 13 4 13 C3.65120368 9.74456771 2.97866739 8.98126893 0.4375 6.75 C-0.366875 6.1725 -1.17125 5.595 -2 5 C-1.125 1.125 -1.125 1.125 0 0 Z " fill="#359C85" transform="translate(1940,1097)"/>
<path d="M0 0 C-0.598125 0.28875 -1.19625 0.5775 -1.8125 0.875 C-4.19327792 2.04742026 -4.19327792 2.04742026 -7 4 C-7.40305767 7.15728506 -7.49220789 9.15230863 -5.875 11.9375 C-3.04436087 13.54152884 -1.06387128 12.78226501 2 12 C2.66 11.67 3.32 11.34 4 11 C3 14 3 14 1 15 C-2.69407253 15.4104525 -4.5810823 15.22767266 -7.875 13.4375 C-10 11 -10 11 -10.625 7.5 C-10 4 -10 4 -7.8125 1.5625 C-4.84843876 -0.08420069 -3.32351429 -0.3798302 0 0 Z " fill="#369C86" transform="translate(1878,1097)"/>
<path d="M0 0 C0.66 0.33 1.32 0.66 2 1 C2.703125 3.21484375 2.703125 3.21484375 3.25 5.9375 C3.44078125 6.83339844 3.6315625 7.72929688 3.828125 8.65234375 C3.88484375 9.42707031 3.9415625 10.20179687 4 11 C3.34 11.66 2.68 12.32 2 13 C0.35 9.7 -1.3 6.4 -3 3 C-2.01 2.01 -1.02 1.02 0 0 Z " fill="#2083C1" transform="translate(1847,1081)"/>
<path d="M0 0 C2.97 0 5.94 0 9 0 C9 2.31 9 4.62 9 7 C7.35 7.33 5.7 7.66 4 8 C4 5.69 4 3.38 4 1 C3.01 1.33 2.02 1.66 1 2 C0.67 1.34 0.34 0.68 0 0 Z " fill="#AECED7" transform="translate(1897,1097)"/>
<path d="M0 0 C3.89635954 4.77618266 5.13469529 6.80401645 5 13 C0.8110883 10.03285421 0.8110883 10.03285421 -1 8 C-1.44523109 4.75617347 -1.462958 2.925916 0 0 Z " fill="#1D82C0" transform="translate(1843,1087)"/>
<path d="M0 0 C-0.598125 0.268125 -1.19625 0.53625 -1.8125 0.8125 C-4.84303169 2.42454127 -4.84303169 2.42454127 -7 5 C-6.76522801 8.64541845 -6.76522801 8.64541845 -6 12 C-4.02 12.66 -2.04 13.32 0 14 C0 14.33 0 14.66 0 15 C-6.30162703 14.40550688 -6.30162703 14.40550688 -8.9375 12.875 C-10.69297303 9.77710642 -10.48723574 7.47155466 -10 4 C-6.88228157 0.52597089 -4.64040092 -0.53033153 0 0 Z " fill="#2F9981" transform="translate(1961,1097)"/>
<path d="M0 0 C2.64 0 5.28 0 8 0 C8.625 2.875 8.625 2.875 9 6 C8.34 6.66 7.68 7.32 7 8 C6.01 8 5.02 8 4 8 C4 5.69 4 3.38 4 1 C2.68 0.67 1.36 0.34 0 0 Z " fill="#AECED7" transform="translate(1910,1097)"/>
<path d="M0 0 C5.78461538 4.18461538 5.78461538 4.18461538 6.875 8.3125 C6.936875 9.6428125 6.936875 9.6428125 7 11 C4.0625 10 4.0625 10 1 8 C0.13481757 5.24121075 0.09606806 2.93007574 0 0 Z " fill="#2284C1" transform="translate(1842,1097)"/>
<path d="M0 0 C0 3.63 0 7.26 0 11 C-0.99 11 -1.98 11 -3 11 C-3.33 7.7 -3.66 4.4 -4 1 C-2 0 -2 0 0 0 Z " fill="#1880C1" transform="translate(1854,1077)"/>
<path d="M0 0 C0.928125 0.2784375 0.928125 0.2784375 1.875 0.5625 C4.04160178 1.23686176 4.04160178 1.23686176 6 0 C6 2.64 6 5.28 6 8 C4 8 2 8 0 8 C0 6.68 0 5.36 0 4 C0.99 3.67 1.98 3.34 3 3 C2.01 3 1.02 3 0 3 C0 2.01 0 1.02 0 0 Z " fill="#B5D1DC" transform="translate(1988,1085)"/>
<path d="M0 0 C-0.66 0.66 -1.32 1.32 -2 2 C-2.66 2 -3.32 2 -4 2 C-4 5.96 -4 9.92 -4 14 C-3.01 13.67 -2.02 13.34 -1 13 C-0.67 13.66 -0.34 14.32 0 15 C-1.98 15 -3.96 15 -6 15 C-6 11.37 -6 7.74 -6 4 C-6.66 4 -7.32 4 -8 4 C-8 3.34 -8 2.68 -8 2 C-8.66 1.67 -9.32 1.34 -10 1 C-6.61981469 -0.04005702 -3.5219721 -0.08004482 0 0 Z " fill="#88BEBD" transform="translate(1971,1097)"/>
<path d="M0 0 C0.66 0 1.32 0 2 0 C2 2.31 2 4.62 2 7 C3.32 6.34 4.64 5.68 6 5 C6 3.35 6 1.7 6 0 C6.99 0.33 7.98 0.66 9 1 C9.1875 3.375 9.1875 3.375 9 6 C6 8 6 8 2 8 C2 9.65 2 11.3 2 13 C1.67 13 1.34 13 1 13 C0.67 8.71 0.34 4.42 0 0 Z " fill="#27967C" transform="translate(1912,1098)"/>
<path d="M0 0 C1.5 1.375 1.5 1.375 3 3 C3 3.66 3 4.32 3 5 C5.31 5.66 7.62 6.32 10 7 C6.06322574 8.31225809 4.2205738 7.3393954 0.3125 6.0625 C-0.86699219 5.68222656 -2.04648438 5.30195312 -3.26171875 4.91015625 C-4.16535156 4.60980469 -5.06898437 4.30945312 -6 4 C-2.25 2 -2.25 2 0 2 C0 1.34 0 0.68 0 0 Z " fill="#A2C6DF" transform="translate(1844,1109)"/>
<path d="M0 0 C6.76923077 3.44615385 6.76923077 3.44615385 7.9375 6.25 C7.958125 6.8275 7.97875 7.405 8 8 C5.625 7.75 5.625 7.75 3 7 C1.8125 5.0625 1.8125 5.0625 1 3 C0.34 2.34 -0.32 1.68 -1 1 C-0.67 0.67 -0.34 0.34 0 0 Z " fill="#2887C3" transform="translate(1844,1107)"/>
<path d="M0 0 C0.66 0 1.32 0 2 0 C2.061875 0.5775 2.12375 1.155 2.1875 1.75 C3.32027301 4.88690987 5.34197595 6.09167504 8 8 C7.67 9.32 7.34 10.64 7 12 C7 11.01 7 10.02 7 9 C6.1028125 8.566875 6.1028125 8.566875 5.1875 8.125 C3 7 3 7 0 5 C-0.1875 2.375 -0.1875 2.375 0 0 Z " fill="#2A977E" transform="translate(2002,1098)"/>
<path d="M0 0 C1.81618856 1.11903546 3.62785526 2.24541284 5.4375 3.375 C6.44683594 4.00148438 7.45617188 4.62796875 8.49609375 5.2734375 C11 7 11 7 12 9 C10.68 9.33 9.36 9.66 8 10 C7.79375 9.4225 7.5875 8.845 7.375 8.25 C5.51518335 5.20666366 2.95455813 3.92688574 0 2 C0 1.34 0 0.68 0 0 Z " fill="#A5C7E0" transform="translate(1844,1105)"/>
<path d="M0 0 C1.875 0.3125 1.875 0.3125 4 1 C6.1519437 4.22791555 6.20086443 5.28400809 6 9 C5.34 9 4.68 9 4 9 C3.525625 7.88625 3.05125 6.7725 2.5625 5.625 C1.74693537 3.73289006 0.92143645 1.84287291 0 0 Z " fill="#329B84" transform="translate(1892,1098)"/>
<path d="M0 0 C1.65 0 3.3 0 5 0 C5 2.64 5 5.28 5 8 C2.74754119 5.31158141 1.11786042 3.35358125 0 0 Z " fill="#B5D1DC" transform="translate(2004,1085)"/>
<path d="M0 0 C1.2065625 0.0309375 1.2065625 0.0309375 2.4375 0.0625 C1.4475 0.7225 0.4575 1.3825 -0.5625 2.0625 C-0.92547936 4.03997122 -0.92547936 4.03997122 -0.75 6.1875 C-0.688125 7.46625 -0.62625 8.745 -0.5625 10.0625 C-2.61869793 7.74927733 -3.52149829 6.50326838 -3.8125 3.375 C-3.46049331 0.11893812 -3.30658464 0.08064841 0 0 Z " fill="#8DC0C1" transform="translate(1924.5625,1096.9375)"/>
<path d="M0 0 C1.98 0.495 1.98 0.495 4 1 C3.01 1 2.02 1 1 1 C1.66 1.763125 2.32 2.52625 3 3.3125 C5 6 5 6 5 9 C2.40383083 7.70191542 0.85055798 6.23343204 -1 4 C-0.75 1.75 -0.75 1.75 0 0 Z " fill="#44A390" transform="translate(2003,1084)"/>
<path d="M0 0 C0.66 0 1.32 0 2 0 C2.99 2.97 3.98 5.94 5 9 C4.34 9 3.68 9 3 9 C2.67 8.34 2.34 7.68 2 7 C1.01 6.67 0.02 6.34 -1 6 C-0.67 4.02 -0.34 2.04 0 0 Z " fill="#3DA08B" transform="translate(1917,1084)"/>
<path d="M0 0 C2.70608417 1.35304209 2.96183047 2.80966544 4.125 5.5625 C4.47820312 6.38878906 4.83140625 7.21507812 5.1953125 8.06640625 C5.46085937 8.70449219 5.72640625 9.34257813 6 10 C5.34 10 4.68 10 4 10 C1.46093936 7.38626111 0.07743148 5.87110419 -0.25 2.1875 C-0.1675 1.465625 -0.085 0.74375 0 0 Z " fill="#308CC5" transform="translate(1849,1098)"/>
<path d="M0 0 C2.42945561 3.64418341 2.0828781 4.92923364 1.625 9.1875 C1.51414062 10.27417969 1.40328125 11.36085938 1.2890625 12.48046875 C1.19367188 13.31191406 1.09828125 14.14335938 1 15 C0.34 14.67 -0.32 14.34 -1 14 C-0.67 10.37 -0.34 6.74 0 3 C-0.66 2.67 -1.32 2.34 -2 2 C-1.34 2 -0.68 2 0 2 C0 1.34 0 0.68 0 0 Z " fill="#B2CEE3" transform="translate(1854,1074)"/>
<path d="M0 0 C-0.804375 0.3403125 -0.804375 0.3403125 -1.625 0.6875 C-4.78500863 2.43382056 -7.2676983 4.6402849 -10 7 C-9.63206382 4.33246269 -9.18001672 3.18001672 -7.25 1.25 C-4.62056017 -0.21079991 -2.9625559 -0.24687966 0 0 Z " fill="#3EA08C" transform="translate(1961,1097)"/>
<path d="M0 0 C1.80411967 2.75924185 2.0127245 3.88972103 1.625 7.25 C1.41875 8.1575 1.2125 9.065 1 10 C-0.80411967 7.24075815 -1.0127245 6.11027897 -0.625 2.75 C-0.41875 1.8425 -0.2125 0.935 0 0 Z " fill="#88B9DA" transform="translate(1847,1069)"/>
<path d="M0 0 C3.465 1.98 3.465 1.98 7 4 C3.37673261 5.2077558 2.35853631 4.54311128 -1 3 C-0.67 2.01 -0.34 1.02 0 0 Z " fill="#2686C3" transform="translate(1853,1113)"/>
<path d="M0 0 C2.31 1.98 4.62 3.96 7 6 C6.67 6.66 6.34 7.32 6 8 C1.125 4.5 1.125 4.5 0 0 Z " fill="#2386C3" transform="translate(1850,1106)"/>
<path d="M0 0 C-0.66 0.66 -1.32 1.32 -2 2 C-2.99 1.67 -3.98 1.34 -5 1 C-5.33 1.99 -5.66 2.98 -6 4 C-6.66 4 -7.32 4 -8 4 C-8 3.34 -8 2.68 -8 2 C-8.66 1.67 -9.32 1.34 -10 1 C-6.61981469 -0.04005702 -3.5219721 -0.08004482 0 0 Z " fill="#7AB8B4" transform="translate(1971,1097)"/>
</svg>
